<svg width="53" height="54" viewBox="0 0 53 54" fill="none" xmlns="http://www.w3.org/2000/svg">
<path d="M26.6065 0C12.0648 0 0.213066 11.8518 0.213066 26.3935C0.213066 31.0543 1.43819 35.5819 3.72864 39.5769L0 53.2663L13.9824 49.591C17.8442 51.695 22.1854 52.8136 26.6065 52.8136C41.1482 52.8136 53 40.9618 53 26.4201C53 19.3623 50.2568 12.7307 45.2764 7.75025C40.296 2.74322 33.6643 0 26.6065 0ZM26.6332 4.44774C32.4925 4.44774 37.9789 6.73819 42.1337 10.893C46.2618 15.0477 48.5523 20.5608 48.5523 26.4201C48.5523 38.5116 38.698 48.3392 26.6065 48.3392C22.6648 48.3392 18.803 47.3005 15.4472 45.2764L14.6482 44.8236L6.33869 47.0075L8.54925 38.9111L8.01658 38.0588C5.83266 34.6231 4.6608 30.5482 4.6608 26.3935C4.68744 14.302 14.5151 4.44774 26.6332 4.44774ZM17.2583 14.1955C16.8322 14.1955 16.1131 14.3553 15.5005 15.0211C14.9146 15.6869 13.1834 17.3116 13.1834 20.5342C13.1834 23.7834 15.5538 26.8995 15.8467 27.3523C16.2196 27.805 20.5342 34.4633 27.1658 37.2864C28.7372 38.0055 29.9623 38.405 30.9211 38.698C32.4925 39.204 33.9307 39.1241 35.0759 38.9643C36.3543 38.7779 38.9643 37.3663 39.5236 35.8216C40.0829 34.2769 40.0829 32.9719 39.9231 32.6789C39.7367 32.4126 39.3106 32.2528 38.6447 31.9598C37.9789 31.5869 34.7296 29.9889 34.1437 29.7759C33.5312 29.5628 33.1583 29.4563 32.6523 30.0955C32.2261 30.7613 30.9477 32.2528 30.5749 32.6789C30.1754 33.1317 29.8025 33.1849 29.1633 32.8653C28.4709 32.5191 26.3402 31.8266 23.8367 29.5894C21.8658 27.8317 20.5608 25.6744 20.1613 25.0085C19.8417 24.3693 20.1347 23.9698 20.4543 23.6769C20.7472 23.3839 21.1734 22.9045 21.4397 22.505C21.7859 22.1322 21.8925 21.8392 22.1055 21.4131C22.3186 20.9603 22.2121 20.5874 22.0523 20.2678C21.8925 19.9749 20.5608 16.6724 20.0015 15.3673C19.4688 14.0889 18.9362 14.2487 18.51 14.2221C18.1372 14.2221 17.7111 14.1955 17.2583 14.1955Z" fill="black"/>
</svg>
